<mxfile host="Electron" modified="2023-05-01T22:14:33.631Z" agent="Mozilla/5.0 (Macintosh; Intel Mac OS X 10_15_7) AppleWebKit/537.36 (KHTML, like Gecko) draw.io/21.2.1 Chrome/112.0.5615.87 Electron/24.1.2 Safari/537.36" etag="ZxH_HJ09kUhACv2LjUF2" version="21.2.1" type="device">
  <diagram name="Page-1" id="c7488fd3-1785-93aa-aadb-54a6760d102a">
    <mxGraphModel dx="1249" dy="854" grid="1" gridSize="10" guides="1" tooltips="1" connect="1" arrows="1" fold="1" page="1" pageScale="1" pageWidth="1100" pageHeight="850" background="none" math="0" shadow="0">
      <root>
        <mxCell id="0" />
        <mxCell id="1" parent="0" />
        <mxCell id="2b4e8129b02d487f-1" value="J&#39;s Online Records" style="swimlane;html=1;childLayout=stackLayout;horizontal=1;startSize=20;horizontalStack=0;rounded=0;shadow=0;labelBackgroundColor=none;strokeWidth=1;fontFamily=Verdana;fontSize=8;align=center;" parent="1" vertex="1">
          <mxGeometry x="180" y="70" width="680" height="470" as="geometry" />
        </mxCell>
        <mxCell id="2b4e8129b02d487f-2" value="Customer Lead" style="swimlane;html=1;startSize=20;horizontal=0;" parent="2b4e8129b02d487f-1" vertex="1">
          <mxGeometry y="20" width="680" height="150" as="geometry" />
        </mxCell>
        <mxCell id="h9AIAdLelGw_tDxp4aru-1" value="A customer browses our walkable development site." style="whiteSpace=wrap;html=1;aspect=fixed;" parent="2b4e8129b02d487f-2" vertex="1">
          <mxGeometry x="60" y="30" width="80" height="80" as="geometry" />
        </mxCell>
        <mxCell id="oOx9pykx4zMoNSyhCKtk-1" value="" style="edgeStyle=orthogonalEdgeStyle;rounded=0;orthogonalLoop=1;jettySize=auto;html=1;" parent="2b4e8129b02d487f-2" source="h9AIAdLelGw_tDxp4aru-11" edge="1">
          <mxGeometry relative="1" as="geometry">
            <mxPoint x="470" y="70" as="targetPoint" />
          </mxGeometry>
        </mxCell>
        <mxCell id="h9AIAdLelGw_tDxp4aru-11" value="&lt;font style=&quot;font-size: 10px;&quot;&gt;&lt;br&gt;Submits contact info via website&lt;/font&gt;" style="shape=step;perimeter=stepPerimeter;whiteSpace=wrap;html=1;fixedSize=1;size=0;" parent="2b4e8129b02d487f-2" vertex="1">
          <mxGeometry x="250" y="30" width="120" height="80" as="geometry" />
        </mxCell>
        <mxCell id="h9AIAdLelGw_tDxp4aru-12" value="" style="endArrow=classic;html=1;rounded=0;" parent="2b4e8129b02d487f-2" edge="1">
          <mxGeometry width="50" height="50" relative="1" as="geometry">
            <mxPoint x="150" y="70" as="sourcePoint" />
            <mxPoint x="250" y="70" as="targetPoint" />
            <Array as="points" />
          </mxGeometry>
        </mxCell>
        <mxCell id="h9AIAdLelGw_tDxp4aru-14" value="Lead created" style="ellipse;whiteSpace=wrap;html=1;aspect=fixed;" parent="2b4e8129b02d487f-2" vertex="1">
          <mxGeometry x="480" y="30" width="80" height="80" as="geometry" />
        </mxCell>
        <mxCell id="2b4e8129b02d487f-3" value="Sales" style="swimlane;html=1;startSize=20;horizontal=0;" parent="2b4e8129b02d487f-1" vertex="1">
          <mxGeometry y="170" width="680" height="150" as="geometry" />
        </mxCell>
        <mxCell id="h9AIAdLelGw_tDxp4aru-4" value="&lt;font style=&quot;font-size: 8px;&quot;&gt;Sales team surveys state&lt;/font&gt;" style="shape=parallelogram;perimeter=parallelogramPerimeter;whiteSpace=wrap;html=1;fixedSize=1;" parent="2b4e8129b02d487f-3" vertex="1">
          <mxGeometry x="40" y="35" width="120" height="60" as="geometry" />
        </mxCell>
        <mxCell id="h9AIAdLelGw_tDxp4aru-9" value="Sales reviews possible good development sites" style="rounded=0;whiteSpace=wrap;html=1;" parent="2b4e8129b02d487f-3" vertex="1">
          <mxGeometry x="240" y="35" width="120" height="70" as="geometry" />
        </mxCell>
        <mxCell id="h9AIAdLelGw_tDxp4aru-8" value="" style="endArrow=classic;html=1;rounded=0;exitX=0.917;exitY=0.583;exitDx=0;exitDy=0;exitPerimeter=0;" parent="2b4e8129b02d487f-3" source="h9AIAdLelGw_tDxp4aru-4" target="h9AIAdLelGw_tDxp4aru-9" edge="1">
          <mxGeometry width="50" height="50" relative="1" as="geometry">
            <mxPoint x="190" y="130" as="sourcePoint" />
            <mxPoint x="220" y="70" as="targetPoint" />
          </mxGeometry>
        </mxCell>
        <mxCell id="oOx9pykx4zMoNSyhCKtk-9" value="Proposal submitted" style="ellipse;whiteSpace=wrap;html=1;aspect=fixed;fontSize=8;" parent="2b4e8129b02d487f-3" vertex="1">
          <mxGeometry x="480" y="32.5" width="75" height="75" as="geometry" />
        </mxCell>
        <mxCell id="oOx9pykx4zMoNSyhCKtk-4" value="" style="endArrow=classic;html=1;rounded=0;fontSize=8;exitX=0;exitY=1;exitDx=0;exitDy=0;entryX=0.45;entryY=0;entryDx=0;entryDy=0;entryPerimeter=0;" parent="2b4e8129b02d487f-1" source="h9AIAdLelGw_tDxp4aru-14" target="h9AIAdLelGw_tDxp4aru-9" edge="1">
          <mxGeometry relative="1" as="geometry">
            <mxPoint x="420" y="140" as="sourcePoint" />
            <mxPoint x="580" y="140" as="targetPoint" />
          </mxGeometry>
        </mxCell>
        <mxCell id="oOx9pykx4zMoNSyhCKtk-5" value="Lead as part of customer review" style="edgeLabel;resizable=0;html=1;align=center;verticalAlign=middle;fontSize=8;" parent="oOx9pykx4zMoNSyhCKtk-4" connectable="0" vertex="1">
          <mxGeometry relative="1" as="geometry" />
        </mxCell>
        <mxCell id="oOx9pykx4zMoNSyhCKtk-30" value="" style="endArrow=classic;html=1;rounded=0;fontSize=8;exitX=0.5;exitY=1;exitDx=0;exitDy=0;entryX=0.5;entryY=0;entryDx=0;entryDy=0;" parent="2b4e8129b02d487f-1" source="h9AIAdLelGw_tDxp4aru-9" target="oOx9pykx4zMoNSyhCKtk-13" edge="1">
          <mxGeometry relative="1" as="geometry">
            <mxPoint x="250" y="320" as="sourcePoint" />
            <mxPoint x="410" y="320" as="targetPoint" />
          </mxGeometry>
        </mxCell>
        <mxCell id="oOx9pykx4zMoNSyhCKtk-31" value="Denials sent back to Sales" style="edgeLabel;resizable=0;html=1;align=center;verticalAlign=middle;fontSize=8;" parent="oOx9pykx4zMoNSyhCKtk-30" connectable="0" vertex="1">
          <mxGeometry relative="1" as="geometry" />
        </mxCell>
        <mxCell id="oOx9pykx4zMoNSyhCKtk-32" value="Source" style="edgeLabel;resizable=0;html=1;align=left;verticalAlign=bottom;fontSize=8;" parent="oOx9pykx4zMoNSyhCKtk-30" connectable="0" vertex="1">
          <mxGeometry x="-1" relative="1" as="geometry" />
        </mxCell>
        <mxCell id="oOx9pykx4zMoNSyhCKtk-33" value="Target" style="edgeLabel;resizable=0;html=1;align=right;verticalAlign=bottom;fontSize=8;" parent="oOx9pykx4zMoNSyhCKtk-30" connectable="0" vertex="1">
          <mxGeometry x="1" relative="1" as="geometry" />
        </mxCell>
        <mxCell id="2b4e8129b02d487f-4" value="Management&lt;span style=&quot;white-space: pre;&quot;&gt;	&lt;/span&gt;" style="swimlane;html=1;startSize=20;horizontal=0;" parent="2b4e8129b02d487f-1" vertex="1">
          <mxGeometry y="320" width="680" height="150" as="geometry" />
        </mxCell>
        <mxCell id="h9AIAdLelGw_tDxp4aru-5" value="Reviews Proposal" style="shape=parallelogram;perimeter=parallelogramPerimeter;whiteSpace=wrap;html=1;fixedSize=1;" parent="2b4e8129b02d487f-4" vertex="1">
          <mxGeometry x="40" y="32.5" width="160" height="75" as="geometry" />
        </mxCell>
        <mxCell id="oOx9pykx4zMoNSyhCKtk-12" value="Development Plan Set" style="ellipse;whiteSpace=wrap;html=1;aspect=fixed;fontSize=8;" parent="2b4e8129b02d487f-4" vertex="1">
          <mxGeometry x="480" y="32.5" width="80" height="80" as="geometry" />
        </mxCell>
        <mxCell id="oOx9pykx4zMoNSyhCKtk-13" value="Approval Proccess" style="rhombus;whiteSpace=wrap;html=1;fontSize=8;" parent="2b4e8129b02d487f-4" vertex="1">
          <mxGeometry x="300" y="30" width="80" height="80" as="geometry" />
        </mxCell>
        <mxCell id="oOx9pykx4zMoNSyhCKtk-16" value="" style="endArrow=classic;html=1;rounded=0;fontSize=8;exitX=1;exitY=0.5;exitDx=0;exitDy=0;entryX=0;entryY=0.5;entryDx=0;entryDy=0;" parent="2b4e8129b02d487f-4" source="h9AIAdLelGw_tDxp4aru-5" target="oOx9pykx4zMoNSyhCKtk-13" edge="1">
          <mxGeometry width="50" height="50" relative="1" as="geometry">
            <mxPoint x="310" y="30" as="sourcePoint" />
            <mxPoint x="360" y="-20" as="targetPoint" />
            <Array as="points">
              <mxPoint x="190" y="70" />
            </Array>
          </mxGeometry>
        </mxCell>
        <mxCell id="LncRRXF8Mz1hpCVR6BFq-4" value="" style="endArrow=classic;html=1;rounded=0;" edge="1" parent="2b4e8129b02d487f-4">
          <mxGeometry width="50" height="50" relative="1" as="geometry">
            <mxPoint x="380" y="70" as="sourcePoint" />
            <mxPoint x="480" y="70" as="targetPoint" />
          </mxGeometry>
        </mxCell>
        <mxCell id="oOx9pykx4zMoNSyhCKtk-10" style="edgeStyle=orthogonalEdgeStyle;rounded=0;orthogonalLoop=1;jettySize=auto;html=1;fontSize=8;" parent="1" source="h9AIAdLelGw_tDxp4aru-9" edge="1">
          <mxGeometry relative="1" as="geometry">
            <mxPoint x="650" y="310" as="targetPoint" />
          </mxGeometry>
        </mxCell>
      </root>
    </mxGraphModel>
  </diagram>
</mxfile>
